<svg width="45" height="51" viewBox="0 0 45 51" fill="none" xmlns="http://www.w3.org/2000/svg">
<path d="M6.1723 16.3108C6.1723 21.8584 10.6667 26.3528 16.2143 26.3551C21.7619 26.3528 26.2564 21.8584 26.2564 16.3108C26.2564 10.7632 21.7619 6.26875 16.2143 6.26651C10.6667 6.26875 6.1723 10.7632 6.1723 16.3108Z" fill="#FEBC70"/>
<path d="M16.2121 23.0077C19.9107 23.0077 22.909 20.0094 22.909 16.3108C22.909 12.6122 19.9107 9.61386 16.2121 9.61386C12.5135 9.61386 9.51517 12.6122 9.51517 16.3108C9.51517 20.0094 12.5135 23.0077 16.2121 23.0077Z" fill="#FED29E"/>
<path d="M16.2121 19.6581C18.0608 19.6581 19.5594 18.1594 19.5594 16.3108C19.5594 14.4621 18.0608 12.9634 16.2121 12.9634C14.3634 12.9634 12.8648 14.4621 12.8648 16.3108C12.8648 18.1594 14.3634 19.6581 16.2121 19.6581Z" fill="#FE8802"/>
<path d="M41.6716 16.0246C43.5163 15.8636 44.8826 14.238 44.7216 12.3933L31.4127 13.5582C30.1135 6.33583 23.8079 0.85978 16.2143 0.857544C7.67939 0.85978 0.765564 7.7736 0.765564 16.3086C0.765564 18.8599 1.38271 21.2658 2.47837 23.3856L8.5738 35.5787L16.2143 50.8575L23.8571 35.5765L29.9525 23.3856C30.2164 22.8736 30.4489 22.3414 30.6547 21.7958L38.0403 22.442C39.885 22.603 41.5128 21.239 41.6738 19.3943L27.6494 18.1667C26.7617 23.683 21.9811 27.8935 16.2143 27.8957C9.8148 27.8935 4.6272 22.7081 4.6272 16.3063C4.6272 9.90454 9.8148 4.72141 16.2143 4.71694C22.6139 4.72141 27.8015 9.90678 27.8015 16.3063C27.8015 16.6216 27.7836 16.9324 27.759 17.2387L41.6716 16.0223V16.0246Z" fill="#FE9D2E"/>
</svg>
