<svg width="361" height="116" viewBox="0 0 361 116" fill="none" xmlns="http://www.w3.org/2000/svg">
<g clip-path="url(#clip0_740_8876)">
<path d="M272.084 35.6334C272.084 48.4255 282.448 58.7891 295.24 58.7943C308.032 58.7891 318.396 48.4255 318.396 35.6334C318.396 22.8412 308.032 12.4776 295.24 12.4725C282.448 12.4776 272.084 22.8412 272.084 35.6334Z" fill="#FEBC70"/>
<path d="M295.235 51.0757C303.763 51.0757 310.677 44.1619 310.677 35.6334C310.677 27.1048 303.763 20.191 295.235 20.191C286.706 20.191 279.792 27.1048 279.792 35.6334C279.792 44.1619 286.706 51.0757 295.235 51.0757Z" fill="#FED29E"/>
<path d="M295.235 43.352C299.498 43.352 302.953 39.8962 302.953 35.6334C302.953 31.3705 299.498 27.9148 295.235 27.9148C290.972 27.9148 287.516 31.3705 287.516 35.6334C287.516 39.8962 290.972 43.352 295.235 43.352Z" fill="#FE8802"/>
<path d="M353.941 34.9734C358.195 34.6022 361.345 30.8537 360.974 26.6L330.285 29.2863C327.29 12.6323 312.75 0.00515604 295.24 0C275.559 0.00515604 259.617 15.9476 259.617 35.6282C259.617 41.5113 261.04 47.0592 263.566 51.9471L277.622 80.063L295.24 115.294L312.863 80.0578L326.919 51.9471C327.527 50.7663 328.063 49.5392 328.538 48.2811L345.568 49.7712C349.822 50.1425 353.575 46.9973 353.947 42.7436L321.608 39.9129C319.561 52.6328 308.537 62.3417 295.24 62.3468C280.483 62.3417 268.521 50.3848 268.521 35.6231C268.521 20.8613 280.483 8.90963 295.24 8.89932C309.996 8.90963 321.958 20.8665 321.958 35.6231C321.958 36.3501 321.917 37.0668 321.861 37.7731L353.941 34.9682V34.9734Z" fill="#FE9D2E"/>
<path d="M78.2841 110.499C77.9232 110.231 77.6087 109.927 77.3406 109.586C77.0725 109.246 76.8765 108.865 76.7683 108.437C76.6548 108.009 76.6548 107.55 76.7683 107.05C76.8817 106.555 77.1601 105.993 77.6138 105.364L79.7072 102.322C80.3826 101.332 81.1251 100.78 81.9346 100.667C82.7441 100.553 83.7134 100.811 84.8374 101.445C85.2448 101.672 85.7243 101.94 86.2915 102.255C86.8535 102.569 87.5083 102.899 88.2507 103.234C88.9932 103.575 89.813 103.853 90.7153 104.08C91.6176 104.307 92.5818 104.42 93.6182 104.42C95.3764 104.42 96.6706 104.095 97.5007 103.44C98.336 102.786 98.7484 101.986 98.7484 101.043C98.7484 99.9189 98.2174 98.9598 97.1604 98.171C96.1034 97.3821 94.7834 96.6396 93.2109 95.9436C91.6331 95.2475 89.9213 94.505 88.0754 93.7162C86.2296 92.9273 84.5178 91.9476 82.94 90.7772C81.3623 89.6068 80.0475 88.1786 78.9905 86.4874C77.9335 84.7962 77.4024 82.6926 77.4024 80.1712C77.4024 77.9645 77.8407 75.9485 78.7172 74.1284C79.5938 72.3083 80.8003 70.7409 82.3316 69.4364C83.863 68.1319 85.683 67.1316 87.8022 66.4304C89.9161 65.7343 92.1951 65.3837 94.6236 65.3837C97.4594 65.3837 100.048 65.7756 102.389 66.5645C104.729 67.3533 106.488 68.1525 107.658 68.962C108.648 69.6839 109.21 70.4573 109.344 71.2926C109.478 72.1278 109.298 73.0404 108.803 74.0304L107.184 77.2065C106.508 78.511 105.73 79.1761 104.853 79.1968C103.977 79.2174 103.064 78.9854 102.115 78.4852C100.991 77.9438 99.8312 77.4385 98.635 76.9642C97.444 76.4898 96.057 76.2527 94.4792 76.2527C92.587 76.2527 91.2361 76.5775 90.4266 77.2323C89.6171 77.8871 89.2098 78.6863 89.2098 79.6299C89.2098 80.8003 89.7408 81.7696 90.7978 82.5327C91.8548 83.301 93.1748 84.0176 94.7474 84.6931C96.3251 85.3685 98.0318 86.0801 99.8828 86.8225C101.729 87.565 103.44 88.5137 105.018 89.6584C106.596 90.8082 107.911 92.2261 108.968 93.9121C110.025 95.6033 110.556 97.7069 110.556 100.228C110.556 102.255 110.185 104.178 109.442 106.003C108.7 107.828 107.607 109.427 106.168 110.798C104.724 112.175 102.945 113.263 100.831 114.072C98.7123 114.882 96.3045 115.289 93.6027 115.289C91.8909 115.289 90.2616 115.129 88.7045 114.815C87.1525 114.5 85.7088 114.103 84.3837 113.634C83.0535 113.16 81.8624 112.644 80.8054 112.082C79.7484 111.52 78.9028 110.989 78.2738 110.494L78.2841 110.499Z" fill="#FE9D2E"/>
<path d="M117.46 69.9056C117.46 67.4307 118.697 66.1881 121.177 66.1881H137.522C139.863 66.1881 142.002 66.5954 143.936 67.4049C145.869 68.2144 147.525 69.3642 148.901 70.8491C150.273 72.3341 151.345 74.0923 152.108 76.1186C152.871 78.1449 153.258 80.3723 153.258 82.806C153.258 85.2396 152.877 87.4774 152.108 89.5243C151.34 91.5712 150.273 93.3398 148.901 94.8247C147.525 96.3096 145.869 97.4697 143.936 98.305C141.997 99.1403 139.863 99.5528 137.522 99.5528H129.282V110.767C129.282 113.242 128.045 114.485 125.565 114.485H121.177C118.702 114.485 117.46 113.247 117.46 110.767V69.9056ZM135.088 89.4263C137.161 89.4263 138.703 88.8076 139.713 87.5702C140.729 86.3327 141.234 84.7446 141.234 82.806C141.234 80.8673 140.739 79.305 139.749 78.114C138.759 76.9229 137.274 76.3248 135.289 76.3248H129.277V89.4263H135.088Z" fill="#FE9D2E"/>
<path d="M156.563 90.0347C156.563 86.5699 157.172 83.3371 158.388 80.3414C159.605 77.3457 161.327 74.7368 163.555 72.5042C165.782 70.2768 168.453 68.5289 171.557 67.2708C174.666 66.0128 178.084 65.3786 181.823 65.3786C185.561 65.3786 188.984 66.0076 192.088 67.2708C195.197 68.5341 197.863 70.2768 200.09 72.5042C202.318 74.7316 204.04 77.3457 205.257 80.3414C206.474 83.3371 207.082 86.5699 207.082 90.0347C207.082 93.4996 206.474 96.9026 205.257 99.9653C204.04 103.028 202.318 105.699 200.09 107.967C197.863 110.241 195.192 112.03 192.088 113.34C188.979 114.645 185.561 115.299 181.823 115.299C178.084 115.299 174.661 114.645 171.557 113.34C168.448 112.036 165.782 110.246 163.555 107.967C161.327 105.694 159.605 103.028 158.388 99.9653C157.172 96.9026 156.563 93.5924 156.563 90.0347ZM168.788 90.0347C168.788 92.1075 169.113 94.0204 169.768 95.7734C170.417 97.5316 171.32 99.0475 172.469 100.331C173.619 101.615 174.991 102.626 176.589 103.373C178.188 104.116 179.93 104.487 181.823 104.487C183.715 104.487 185.458 104.116 187.056 103.373C188.654 102.631 190.026 101.615 191.176 100.331C192.325 99.0475 193.223 97.5265 193.877 95.7734C194.527 94.0152 194.857 92.1023 194.857 90.0347C194.857 87.9672 194.532 86.2193 193.877 84.5281C193.223 82.8421 192.325 81.3778 191.176 80.1403C190.026 78.9029 188.654 77.9335 187.056 77.2375C185.458 76.5414 183.71 76.1908 181.823 76.1908C179.935 76.1908 178.188 76.5414 176.589 77.2375C174.991 77.9335 173.619 78.9029 172.469 80.1403C171.32 81.3778 170.417 82.8421 169.768 84.5281C169.113 86.2193 168.788 88.0497 168.788 90.0347Z" fill="#FE9D2E"/>
<path d="M222.828 76.3248H211.887C209.412 76.3248 208.17 75.0874 208.17 72.6073V69.9056C208.17 67.4307 209.407 66.1881 211.887 66.1881H245.592C248.067 66.1881 249.31 67.4255 249.31 69.9056V72.6073C249.31 75.0822 248.072 76.3248 245.592 76.3248H234.651V110.772C234.651 113.247 233.414 114.49 230.934 114.49H226.546C224.071 114.49 222.828 113.252 222.828 110.772V76.3248Z" fill="#FE9D2E"/>
<path d="M0 4.52701C0 2.05211 1.23745 0.809509 3.7175 0.809509H8.98697C11.0133 0.809509 12.4982 1.64479 13.4469 3.31019L25.3368 23.3723C25.8317 24.1818 26.3061 25.0635 26.7547 26.0071C27.2033 26.9506 27.6312 27.8529 28.0385 28.7088C28.4871 29.6988 28.9408 30.6681 29.3894 31.6117H29.5235C29.4307 30.6217 29.343 29.6318 29.2554 28.6418C29.1625 27.7859 29.0955 26.8836 29.0543 25.94C29.0079 24.9965 28.9872 24.1406 28.9872 23.3723V4.52701C28.9872 2.05211 30.2247 0.809509 32.7047 0.809509H37.0925C39.5674 0.809509 40.81 2.04696 40.81 4.52701V45.3938C40.81 47.8687 39.5726 49.1113 37.0925 49.1113H31.8231C29.8431 49.1113 28.3788 48.276 27.4301 46.6106L15.4733 26.6155C14.9783 25.8524 14.4833 24.981 13.9883 24.0168C13.4934 23.0475 13.0654 22.1349 12.7045 21.279C12.2095 20.289 11.7815 19.3197 11.4206 18.3761H11.2866C11.3742 19.3661 11.467 20.3561 11.5547 21.346C11.6423 22.2019 11.7094 23.1042 11.7558 24.0478C11.8022 24.9913 11.8228 25.8472 11.8228 26.6155V45.3938C11.8228 47.8687 10.5853 49.1113 8.10529 49.1113H3.7175C1.24261 49.1113 0 47.8738 0 45.3938V4.52701Z" fill="#FE9D2E"/>
<path d="M47.616 24.6562C47.616 21.1913 48.2244 17.9585 49.4412 14.9628C50.6581 11.9672 52.3802 9.35821 54.6076 7.12564C56.835 4.89824 59.5058 3.15034 62.6098 1.89227C65.7189 0.634193 69.1425 0 72.8806 0C76.6187 0 80.0423 0.629037 83.1463 1.89227C86.2554 3.1555 88.921 4.89824 91.1484 7.12564C93.3758 9.35305 95.098 11.9672 96.3148 14.9628C97.5316 17.9585 98.14 21.1862 98.14 24.6562C98.14 28.1262 97.5316 31.524 96.3148 34.5867C95.098 37.6494 93.3758 40.3202 91.1484 42.5889C88.921 44.8627 86.2502 46.6518 83.1463 47.9615C80.0372 49.2659 76.6187 49.9208 72.8806 49.9208C69.1425 49.9208 65.7189 49.2659 62.6149 47.9615C59.5058 46.657 56.8402 44.8678 54.6128 42.5889C52.3853 40.3151 50.6632 37.6494 49.4464 34.5867C48.2296 31.524 47.6212 28.2138 47.6212 24.6562H47.616ZM59.841 24.6562C59.841 26.7289 60.1658 28.6418 60.8206 30.3948C61.4703 32.1531 62.3726 33.6689 63.5224 34.9528C64.6722 36.2366 66.0437 37.2472 67.6421 37.9948C69.2404 38.7373 70.9832 39.1085 72.8754 39.1085C74.7677 39.1085 76.5104 38.7373 78.1088 37.9948C79.7072 37.2524 81.0787 36.2366 82.2285 34.9528C83.3783 33.6689 84.2754 32.1479 84.9303 30.3948C85.5799 28.6366 85.9099 26.7237 85.9099 24.6562C85.9099 22.5886 85.5851 20.8407 84.9303 19.1495C84.2754 17.4635 83.3783 15.9992 82.2285 14.7617C81.0787 13.5243 79.7072 12.555 78.1088 11.8589C76.5104 11.1628 74.7625 10.8122 72.8754 10.8122C70.9883 10.8122 69.2404 11.1628 67.6421 11.8589C66.0437 12.555 64.6722 13.5243 63.5224 14.7617C62.3726 15.9992 61.4703 17.4635 60.8206 19.1495C60.1658 20.8407 59.841 22.6711 59.841 24.6562Z" fill="#FE9D2E"/>
<path d="M106.586 4.39296C106.812 2.00571 108.091 0.814667 110.437 0.814667H116.516C118.63 0.814667 120.027 1.82525 120.703 3.85673L126.715 21.2171C126.983 21.9854 127.266 22.8258 127.56 23.7487C127.854 24.6717 128.112 25.5379 128.339 26.3474C128.607 27.2909 128.88 28.2396 129.148 29.1832H129.282C129.551 28.2396 129.824 27.2909 130.092 26.3474C130.319 25.5379 130.577 24.6717 130.871 23.7487C131.164 22.8258 131.443 21.9802 131.716 21.2171L137.728 3.85673C138.404 1.83041 139.801 0.814667 141.915 0.814667H147.994C150.335 0.814667 151.618 2.01087 151.845 4.39296L155.155 45.2597C155.243 46.4765 154.985 47.4201 154.377 48.0955C153.769 48.771 152.856 49.1061 151.639 49.1061H147.251C144.91 49.1061 143.627 47.9151 143.4 45.5278L142.183 27.3579C142.09 26.4556 142.039 25.5224 142.013 24.5531C141.992 23.5837 142.002 22.7175 142.049 21.9544C142.049 21.0521 142.095 20.155 142.183 19.2527H142.049C141.734 20.2426 141.42 21.212 141.105 22.1555C140.837 22.965 140.543 23.8467 140.229 24.7902C139.914 25.7338 139.62 26.5897 139.352 27.3579L135.367 38.3661C134.645 40.346 133.227 41.336 131.113 41.336H127.328C125.209 41.336 123.791 40.346 123.075 38.3661L119.089 27.3579C118.821 26.5949 118.527 25.739 118.212 24.7902C117.898 23.8467 117.604 22.965 117.336 22.1555C117.021 21.212 116.707 20.2426 116.392 19.2527H116.258C116.258 20.155 116.279 21.0521 116.325 21.9544C116.325 22.7227 116.336 23.5889 116.361 24.5531C116.382 25.5224 116.351 26.4556 116.258 27.3579L115.042 45.5278C114.815 47.9151 113.531 49.1061 111.19 49.1061H106.73C105.513 49.1061 104.601 48.7658 103.997 48.0955C103.389 47.4201 103.131 46.4765 103.219 45.2597L106.596 4.39296H106.586Z" fill="#FE9D2E"/>
<path d="M173.248 3.85157C173.923 1.82525 175.321 0.809509 177.435 0.809509H183.514C185.628 0.809509 187.025 1.82009 187.7 3.85157L201.684 44.8524C202.132 46.162 202.075 47.1932 201.513 47.9615C200.951 48.7297 199.992 49.1113 198.642 49.1113H194.182C192.062 49.1113 190.67 48.0749 189.995 46.0022L187.969 38.9797H172.908L170.881 46.0022C170.294 48.0749 168.922 49.1113 166.762 49.1113H162.302C160.951 49.1113 159.992 48.7297 159.43 47.9615C158.868 47.1984 158.811 46.162 159.26 44.8524L173.243 3.85157H173.248ZM185.205 29.5183L182.503 20.1292C182.276 19.3661 182.065 18.5102 181.864 17.5615C181.663 16.6128 181.446 15.7156 181.224 14.8597C180.998 13.8698 180.776 12.8592 180.549 11.8228H180.415C180.188 12.8592 179.966 13.8698 179.739 14.8597C179.513 15.7156 179.301 16.6179 179.095 17.5615C178.894 18.505 178.677 19.3609 178.456 20.1292L175.687 29.5183H185.21H185.205Z" fill="#FE9D2E"/>
<path d="M207.221 4.52701C207.221 2.05211 208.459 0.809509 210.939 0.809509H224.38C228.165 0.809509 231.594 1.35089 234.682 2.42851C237.766 3.51127 240.39 5.07355 242.55 7.1205C244.711 9.1726 246.376 11.6939 247.547 14.6844C248.717 17.6801 249.305 21.0676 249.305 24.8521C249.305 28.6366 248.717 32.0345 247.547 35.0508C246.376 38.067 244.711 40.6141 242.55 42.6817C240.39 44.7544 237.766 46.3425 234.682 47.4459C231.599 48.5493 228.165 49.101 224.38 49.101H210.939C208.464 49.101 207.221 47.8635 207.221 45.3835V4.52701ZM223.906 38.9745C228.005 38.9745 231.223 37.7835 233.563 35.3962C235.904 33.009 237.075 29.4977 237.075 24.8573C237.075 20.2168 235.878 16.7417 233.496 14.4214C231.109 12.1012 227.912 10.9411 223.906 10.9411H219.044V38.9745H223.906Z" fill="#FE9D2E"/>
</g>
<defs>
<clipPath id="clip0_740_8876">
<rect width="361" height="115.299" fill="white"/>
</clipPath>
</defs>
</svg>
