<svg width="24" height="24" viewBox="0 0 24 24" fill="none" xmlns="http://www.w3.org/2000/svg">
<path d="M13.86 1.98898C13.617 1.74135 13.3271 1.54464 13.0072 1.41036C12.6873 1.27607 12.3439 1.20691 11.997 1.20691C11.6501 1.20691 11.3066 1.27607 10.9867 1.41036C10.6669 1.54464 10.377 1.74135 10.134 1.98898L0.767981 11.527C0.275837 12.036 0.000732422 12.7164 0.000732422 13.4245C0.000732422 14.1325 0.275837 14.8129 0.767981 15.322L7.45198 22.13C7.93099 22.5571 8.5502 22.7934 9.19198 22.794H14.805C15.154 22.7937 15.4994 22.7235 15.8209 22.5877C16.1424 22.4518 16.4335 22.253 16.677 22.003L23.231 15.328C23.7241 14.8194 23.9998 14.1388 23.9998 13.4305C23.9998 12.7221 23.7241 12.0416 23.231 11.533L13.861 1.98898H13.86ZM13.6 19.41L12.665 20.36C12.6303 20.396 12.5887 20.4247 12.5426 20.4443C12.4966 20.4639 12.447 20.474 12.397 20.474H11.597C11.5057 20.473 11.4179 20.4389 11.35 20.378L10.396 19.408C10.3257 19.3353 10.2864 19.2381 10.2864 19.137C10.2864 19.0359 10.3257 18.9387 10.396 18.866L11.733 17.506C11.7675 17.4706 11.8087 17.4425 11.8542 17.4233C11.8997 17.4041 11.9486 17.3942 11.998 17.3942C12.0474 17.3942 12.0963 17.4041 12.1418 17.4233C12.1873 17.4425 12.2285 17.4706 12.263 17.506L13.601 18.866C13.6721 18.9387 13.7119 19.0363 13.7119 19.138C13.7119 19.2397 13.6711 19.3373 13.6 19.41ZM13.6 13.699L9.86298 17.507C9.82787 17.5422 9.78608 17.5701 9.74006 17.589C9.69405 17.6079 9.64472 17.6174 9.59498 17.617H8.79498C8.70321 17.6179 8.61429 17.5851 8.54498 17.525L7.59498 16.555C7.52436 16.482 7.48487 16.3845 7.48487 16.283C7.48487 16.1815 7.52436 16.0839 7.59498 16.011L11.734 11.797C11.7686 11.7618 11.8098 11.7339 11.8553 11.7149C11.9008 11.6959 11.9497 11.6861 11.999 11.6861C12.0483 11.6861 12.0971 11.6959 12.1426 11.7149C12.1881 11.7339 12.2294 11.7618 12.264 11.797L13.602 13.159C13.6726 13.2311 13.7121 13.328 13.7121 13.429C13.7121 13.5299 13.6726 13.6268 13.602 13.699H13.6ZM13.6 7.99198L7.05998 14.652C7.02519 14.6878 6.98353 14.7163 6.93748 14.7358C6.89144 14.7552 6.84195 14.7651 6.79198 14.765H5.99198C5.8999 14.7656 5.81085 14.7321 5.74198 14.671L4.78998 13.7C4.71985 13.6276 4.68063 13.5308 4.68063 13.43C4.68063 13.3292 4.71985 13.2324 4.78998 13.16L11.733 6.08998C11.7676 6.05485 11.8088 6.02695 11.8543 6.0079C11.8998 5.98886 11.9487 5.97905 11.998 5.97905C12.0473 5.97905 12.0961 5.98886 12.1416 6.0079C12.1871 6.02695 12.2284 6.05485 12.263 6.08998L13.601 7.44998C13.6718 7.52262 13.7114 7.62004 13.7114 7.72148C13.7114 7.82291 13.6718 7.92034 13.601 7.99298L13.6 7.99198Z" fill="#262626"/>
</svg>
