<svg width="24" height="24" viewBox="0 0 24 24" fill="none" xmlns="http://www.w3.org/2000/svg">
<g clip-path="url(#clip0_384_2652)">
<path d="M19.211 3.506L19.317 3.5L19.447 3.508L19.537 3.524L19.66 3.559L19.767 3.605L19.867 3.662L19.957 3.729L20.039 3.804L20.091 3.863L20.173 3.979L20.225 4.075C20.272 4.175 20.302 4.281 20.315 4.391L20.32 4.497C20.32 4.572 20.312 4.646 20.296 4.717L20.261 4.84L13.729 22.917C13.6052 23.1866 13.4066 23.4149 13.1568 23.575C12.9071 23.7351 12.6166 23.8201 12.32 23.82C12.0528 23.8208 11.79 23.7525 11.5571 23.6216C11.3242 23.4907 11.1292 23.3017 10.991 23.073L10.926 22.946L7.574 16.244L0.904 12.908C0.657201 12.7951 0.444363 12.6194 0.286773 12.3985C0.129182 12.1775 0.0323639 11.9191 0.00600004 11.649L0 11.5C0 10.94 0.301 10.428 0.841 10.13L0.981 10.06L18.998 3.554L19.104 3.524L19.211 3.506Z" fill="#262626"/>
</g>
<defs>
<clipPath id="clip0_384_2652">
<rect width="24" height="24" fill="white"/>
</clipPath>
</defs>
</svg>
