<svg width="24" height="24" viewBox="0 0 24 24" fill="none" xmlns="http://www.w3.org/2000/svg">
<path d="M9 11C9 11.7956 9.31607 12.5587 9.87868 13.1213C10.4413 13.6839 11.2044 14 12 14C12.7956 14 13.5587 13.6839 14.1213 13.1213C14.6839 12.5587 15 11.7956 15 11C15 10.2044 14.6839 9.44129 14.1213 8.87868C13.5587 8.31607 12.7956 8 12 8C11.2044 8 10.4413 8.31607 9.87868 8.87868C9.31607 9.44129 9 10.2044 9 11Z" stroke="#262626" stroke-width="2" stroke-linecap="round" stroke-linejoin="round"/>
<path d="M12.005 21.485C11.7417 21.4859 11.4808 21.4347 11.2375 21.3343C10.9941 21.2339 10.773 21.0863 10.587 20.9L6.34296 16.657C5.39456 15.7085 4.69985 14.5368 4.32272 13.2496C3.9456 11.9624 3.89817 10.6011 4.18479 9.29079C4.47141 7.98048 5.08288 6.76327 5.96297 5.75109C6.84306 4.73891 7.96352 3.96426 9.22131 3.49838C10.4791 3.0325 11.8338 2.89035 13.1609 3.08499C14.488 3.27963 15.7449 3.80482 16.8159 4.61226C17.8869 5.4197 18.7377 6.48347 19.2901 7.70574C19.8425 8.92801 20.0787 10.2695 19.977 11.607M19.001 21C18.4705 21 17.9618 20.7893 17.5868 20.4142C17.2117 20.0391 17.001 19.5304 17.001 19C17.001 18.4695 17.2117 17.9608 17.5868 17.5858C17.9618 17.2107 18.4705 17 19.001 17M19.001 21C19.5314 21 20.0401 20.7893 20.4152 20.4142C20.7902 20.0391 21.001 19.5304 21.001 19C21.001 18.4695 20.7902 17.9608 20.4152 17.5858C20.0401 17.2107 19.5314 17 19.001 17M19.001 21V22.5M19.001 17V15.5M22.032 17.25L20.733 18M17.27 20L15.97 20.75M15.97 17.25L17.27 18M20.733 20L22.033 20.75" stroke="#262626" stroke-width="2" stroke-linecap="round" stroke-linejoin="round"/>
</svg>
